<?xml version="1.0" encoding="UTF-8"?><svg id="Layer_2" xmlns="http://www.w3.org/2000/svg" viewBox="0 0 80.7 17"><defs><style>.cls-1{fill:#5f338e;stroke-width:0px;}</style></defs><g id="Layer_1-2"><path class="cls-1" d="M40.04,4.42s0,0,0,0h0s0,0,0,0M71.36,13.08s0,0,0,0h0s0,0,0,0M71.36,13.08h0s0,0,0,0t0,0s0,0,0,0h0M71.37,13.08h0s0,0,0,0"/><path class="cls-1" d="M80.09,3.69c.34,0,.61.27.61.62s-.27.62-.61.62-.61-.27-.61-.62.27-.62.61-.62M80.09,3.79c-.27,0-.49.23-.49.52s.22.52.49.52c.27,0,.49-.23.49-.52s-.22-.52-.49-.52M79.98,4.67h-.11v-.69c.06,0,.11-.02.19-.02.11,0,.17.02.22.05.04.03.06.08.06.14,0,.09-.06.15-.14.17h0c.06.02.1.07.12.17.02.11.03.15.04.17h-.12s-.03-.08-.04-.17c-.02-.09-.06-.12-.15-.12h-.08v.29ZM79.98,4.29h.08c.09,0,.17-.03.17-.12,0-.06-.05-.12-.17-.12-.03,0-.06,0-.08,0v.23Z"/><path class="cls-1" d="M41.5,4.6c-.94.64-1.53,1.46-1.52,2.74.01,1.56,2.63,2.72,2.63,2.72,1.41.71.76,1.7-.24,1.52-.88-.16-1.57-.57-2.15-.98-.2-.15-.55-.04-.56.37,0,.23,0,.86,0,.86,0,.19.12.38.31.56.46.44,1.53,1.31,3.81,1.31,1.66,0,3.52-.69,3.75-2.81.12-1.07-.56-2.36-2.77-3.3-.78-.33-1.12-.69-.9-1.2.2-.48.99-.56,1.71-.23.81.37,1.51-.91.78-1.4-1.66-1.09-3.65-.98-4.85-.15"/><path class="cls-1" d="M73.56,4.6c-.94.64-1.52,1.46-1.52,2.74.01,1.56,2.63,2.72,2.63,2.72,1.41.71.77,1.7-.24,1.52-.88-.16-1.57-.57-2.15-.98-.2-.15-.55-.04-.56.37,0,.23,0,.86,0,.86,0,.19.12.38.31.56.45.44,1.53,1.31,3.8,1.31,1.66,0,3.51-.69,3.74-2.81.12-1.07-.55-2.36-2.77-3.3-.77-.33-1.12-.69-.9-1.2.21-.48,1-.56,1.71-.23.81.37,1.51-.91.79-1.4-1.66-1.09-3.65-.98-4.85-.15"/><path class="cls-1" d="M31.71,12.17c-.31-1.41-.28-4.13-.21-4.93.03-.3-.02-.5-.16-.65-.22-.24-.69-.41-1.54-.44-1.56-.05-1.63.94-1.68,1.21-.13.71-.33,3.17-.07,5.33.08.68.75.98,2,.9.94-.06,1.35-.35,1.52-.59.16-.22.21-.5.14-.84M30.03,5.7c.85,0,1.55-.55,1.55-1.23,0-.28-.12-.54-.33-.76-.3-.29-.74-.47-1.21-.47s-.92.17-1.21.47c-.22.22-.34.49-.34.76s.12.55.34.77c.29.29.74.46,1.21.46"/><path class="cls-1" d="M39.14,4.78c-.1-.25-.34-.6-1.17-.71-.86-.1-2.99.02-3.99.29-1.11.3-1.24,1.1-1.34,1.74-.12.74-.33,3.48.07,5.76.12.7.47,1.08,1.26,1.38.95.35,3.7.47,4.33.18.41-.17.48-.47.51-.53.13-.26.31-.91.31-1.48,0-.14-.04-.23-.13-.3-.15-.12-.41-.12-.53-.09-.38.08-1.2.09-2.07.08,0,0-.26.01-.37-.13-.06-.07-.1-.19-.1-.3l.03-.39c.02-.21.19-.36.39-.36.71,0,2.15-.12,2.23-.13.12-.01.3-.18.34-.37.03-.15.07-.58.08-.94,0-.32-.4-.39-.41-.39-.12-.02-1.2-.19-2.01-.27-.11,0-.21-.07-.27-.15-.07-.09-.09-.2-.07-.31.02-.1.03-.21.05-.33.03-.2.21-.34.41-.33.47.02,1.34.07,1.88.11.68.05.79-.22.86-.56.06-.32-.17-1.2-.29-1.47"/><path class="cls-1" d="M62.85,10.26c.02-3.02,1.36-5.36,1.52-5.63.3-.52.68-.5,1.03-.38.43.14,1.2.37,1.48.5.26.12.39.48.22.88-.19.45-1.06,2.1-1.17,3.64-.07,1.05,1.01,2.19,2.31.4,1.29-1.79,1.08-4.31,1.08-4.64s.13-.67.56-.73c.44-.06.92-.09,1.08-.09.38,0,.61.21.64.61.13,1.53-.04,6.09-3.12,8.1-2.69,1.76-5.67.24-5.65-2.66"/><path class="cls-1" d="M27.48,10.55c-.06-1.47-1.36-1.93-2.11-2.21-.09-.03-.22-.06-.3-.09-.09-.03-.08-.06,0-.1.09-.05.25-.13.25-.13.36-.17,1.53-.86,1.32-2.21-.25-1.61-2.32-1.92-2.96-1.98h0c-.68-.06-2.51-.04-3.79.41-.62.22-.74.71-.82,1.06l-.03.1c-.54,2.08-.36,5.62.36,7.43,0,0,0,.01,0,.02h0s.09.33.51.44c3.9.91,5.79-.03,6.57-.68.68-.56,1.03-1.3,1-2.08M21.81,6.04s0-.05.01-.05c.03-.02.13-.03.15-.04h0c.06-.02,1.54-.3,2.13.12.15.11.24.25.27.41.03.23-.04.45-.21.64-.37.41-1.16.64-2.11.61,0,0-.1,0-.14,0s-.05-.05-.05-.05v-.14s-.04-1.39-.04-1.39c0,0,0-.06,0-.11M24.43,11.06c-.43.45-1.39.46-2.42.43,0,0-.08,0-.16,0-.04-.01-.04-.05-.04-.05v-.15s.08-1.63.08-1.63c0,0,0-.09,0-.13s.04-.05.04-.05l.12-.02c.07-.01,1.64-.21,2.3.31.17.14.28.33.3.55.03.3-.05.55-.23.74"/><path class="cls-1" d="M8.75,10.55c-.06-1.47-1.36-1.93-2.12-2.21-.08-.03-.22-.06-.3-.09-.09-.03-.08-.06,0-.1.09-.05.26-.13.26-.13.36-.17,1.52-.86,1.32-2.21-.24-1.61-2.32-1.92-2.95-1.98h-.01c-.68-.06-2.51-.04-3.79.41-.63.22-.74.71-.83,1.06l-.03.1C-.22,7.5-.05,11.04.67,12.85c0,0,0,.01,0,.02h0s.08.33.52.44c3.9.91,5.79-.03,6.57-.68.68-.56,1.03-1.3.99-2.08M3.09,6.04s0-.05.02-.05c.03-.02.13-.03.14-.04h0c.06-.02,1.54-.3,2.13.12.15.11.24.25.26.41.03.23-.04.45-.21.64-.37.41-1.16.64-2.11.61,0,0-.1,0-.14,0s-.05-.05-.05-.05c0,0-.06-1.59-.05-1.64M5.71,11.06c-.43.45-1.39.46-2.42.43,0,0-.08,0-.15,0-.05-.01-.05-.05-.05-.05v-.15s.08-1.63.08-1.63c0,0,0-.09,0-.13s.04-.05.04-.05l.12-.02h0c.07-.01,1.64-.21,2.29.31.18.14.28.33.3.55.03.3-.05.55-.23.74"/><path class="cls-1" d="M18.57,11.73s-.02-.08-.04-.13c-.68-2.6-2.26-5.78-3.12-7.12-.3-.47-.47-.55-1.72-.48-1.18.06-1.55.54-1.91,1.17-1.59,2.49-2.91,7-2.92,7.04-.15.55-.13.71,1.4,1.2.66.22,1.09.26,1.33.12.15-.09.21-.26.25-.48.02-.11.09-.32.19-.62l.03-.08s.02-.04.06-.03c.04,0,.08.01.08.01.84.14,2.1.04,3.14-.25,0,0,.05-.01.09-.03.05-.01.06.04.06.04l.03.09c.17.54.29.95.34,1.12.04.15.12.25.24.29.21.08.67.05,1.64-.57,1.03-.67.95-.96.85-1.3M14.9,10.49c-.6.08-1.49.1-2.11.05-.07,0-.06-.06-.04-.11.02-.04,1.02-2.33,1.05-2.4.03-.08.06-.09.09,0,.01.03,1.07,2.35,1.06,2.35.01.03.04.1-.05.11"/><path class="cls-1" d="M61.1,1.76c-3.65-1.88-7.26-2.08-9.5-1.41-4.15,1.24-5.43,6.51-1.59,9.1.23.15.09.48-.21,1.01-.36.65-1.03,1.94-2.21,2.87-.71.56-1.17.79-.59,1.48,0,0,1.3,1.46,2.26,1.88,1.15.51,1.45.42,2.31-.39.54-.51,1.62-1.89,2.91-4.1.67-1.15,1.57-1.17,1.45.72,0,0-.18,1.82-.23,2.19-.14,1.08-.03,1.46.94,1.47,0,0,2.08-.12,2.81-.22,1.02-.14.96-.3,1.23-1.1,1.42-4.28,1.54-11.64,1.54-11.64.06-.99-.25-1.41-1.12-1.86M58.43,5.73s-1.29.89-1.32.91c-.11.08-.26.19-.28.6-.01.17-.06,1.38-.06,1.53,0,.17-.08.62-.6.16,0,0-.88-.77-1.01-.89-.03-.03-.33-.37-.8-.17l-1.38.55s-.83.34-.52-.41c.3-.73.5-1.33.57-1.52.07-.2.04-.49-.12-.69-.08-.09-.74-.97-.89-1.18,0,0-.54-.65.36-.6,0,0,1.55.04,1.57.04.02,0,.31.02.52-.3.25-.4,1-1.34.85-1.14.13-.16.43-.58.63.1,0,0,.29.89.42,1.27.09.25.15.43.61.57l1.42.51s.66.21.04.65"/></g></svg>